<?xml version="1.0" standalone="no"?>
<!DOCTYPE svg PUBLIC "-//W3C//DTD SVG 20010904//EN"
 "http://www.w3.org/TR/2001/REC-SVG-20010904/DTD/svg10.dtd">
<svg version="1.0" xmlns="http://www.w3.org/2000/svg"
 width="243.000000pt" height="243.000000pt" viewBox="0 0 243.000000 243.000000"
 preserveAspectRatio="xMidYMid meet">

<g transform="translate(0.000000,243.000000) scale(0.100000,-0.100000)"
fill="#000000" stroke="none">
<path d="M612 1807 c-314 -315 -572 -579 -572 -587 0 -20 1151 -1170 1170
-1170 20 0 1170 1151 1170 1170 0 8 -258 272 -573 587 -451 452 -577 573 -597
573 -20 0 -146 -121 -598 -573z m986 -200 c238 -238 372 -380 372 -392 0 -22
-721 -748 -754 -759 -16 -6 -90 63 -393 366 -246 246 -373 380 -373 393 0 24
737 765 760 765 9 0 183 -168 388 -373z"/>
<path d="M880 1545 l-325 -325 328 -328 327 -327 325 325 325 325 -328 328
-327 327 -325 -325z m512 -142 c107 -107 168 -175 168 -188 0 -22 -311 -337
-344 -349 -15 -5 -54 28 -188 161 -110 109 -168 174 -168 188 0 24 327 355
351 355 7 0 89 -75 181 -167z"/>
<path d="M1077 1322 l-117 -117 123 -123 122 -122 120 120 120 120 -120 120
c-66 66 -122 120 -125 120 -3 0 -58 -53 -123 -118z"/>
</g>
</svg>
